# xmcd
#
# Track frame offsets: 
#        150
#        19311
#        41373
#        59941
#        80868
#        96941
#        117183
#        137356
#        166432
#
# Disc length: 2513 seconds
#
# Revision: 1
# Processed by: cddbd v1.5.2PL0 Copyright (c) Steve Scherf et al.
# Submitted via: ExactAudioCopy v0.99pb5
#
DISCID=7b09cf09
DTITLE=Nelson Y Sus Estrellas - De Un Siglo Al Otro
DYEAR=1995
DGENRE=Salsa
TTITLE0=Rosa
TTITLE1=Sublime Ilución
TTITLE2=Menea La Olla
TTITLE3=Inspiración
TTITLE4=Eso Si Da
TTITLE5=La Rumba
TTITLE6=La Huella
TTITLE7=Amorosa Guajira
TTITLE8=La Nota
EXTD=YEAR: 1995
EXTT0=
EXTT1=
EXTT2=
EXTT3=
EXTT4=
EXTT5=
EXTT6=
EXTT7=
EXTT8=
PLAYORDER=
